<?xml version="1.0" encoding="iso-8859-1"?>
<!-- Generator: Adobe Illustrator 16.0.0, SVG Export Plug-In . SVG Version: 6.00 Build 0)  -->
<!DOCTYPE svg PUBLIC "-//W3C//DTD SVG 1.1//EN" "http://www.w3.org/Graphics/SVG/1.1/DTD/svg11.dtd">
<svg version="1.1" id="Layer_1" xmlns="http://www.w3.org/2000/svg" xmlns:xlink="http://www.w3.org/1999/xlink" x="0px" y="0px"
	 width="1131px" height="1118px" viewBox="0 0 1131 1118" style="enable-background:new 0 0 1131 1118;" xml:space="preserve">
<g>
	<path style="fill:#FEFEFE;" d="M592,1c178.46,0,356.919,0.011,535.379-0.079c3.522-0.002,4.732,0.435,4.731,4.456
		c-0.119,369.749-0.118,739.498,0,1109.248c0.001,4.023-1.212,4.456-4.733,4.454C948.585,1118.989,769.792,1119,591,1119
		c-0.334-0.521-0.27-0.988,0.188-1.402c5.821-2.457,12.116-2.131,18.186-2.702c30.273-2.849,60.067-8.295,89.367-16.287
		c46.045-12.56,89.803-30.678,131.088-54.727c30.909-18.006,60.08-38.461,86.813-62.213c31.212-27.729,59.622-58.062,84.112-92.021
		c20.538-28.479,38.454-58.455,53.478-90.157c12.868-27.153,23.313-55.215,31.63-84.114c7.252-25.201,12.483-50.784,16.325-76.688
		c0.904-6.096,1.33-12.245,2.229-18.343c0.732-4.97-0.139-5.964-5.15-5.993c-11.166-0.064-22.332-0.021-33.499-0.021
		c-24.832,0-49.664-0.015-74.496,0.011c-5.505,0.006-6.213,0.654-6.845,5.633c-4.285,33.725-12.94,66.323-24.979,98.085
		c-17.907,47.248-43.563,89.918-76.55,128.055c-34.408,39.778-74.352,72.903-120.62,98.322
		c-44.909,24.671-92.699,40.567-143.226,48.368c-28.06,4.332-56.383,5.833-84.694,4.328c-52.189-2.774-102.546-14.034-150.585-34.98
		c-41.414-18.058-79.15-41.9-112.953-71.899c-31.205-27.695-58.497-58.787-80.92-94.034c-22.501-35.37-39.485-73.207-51.191-113.502
		c-8.17-28.123-13.223-56.774-15.802-85.854c-1.973-22.24-1.918-44.555-0.363-66.858c1.694-24.307,5.133-48.321,10.753-72.05
		c6.551-27.659,15.7-54.399,27.386-80.292c17.051-37.779,39.178-72.372,66.293-103.651c34.456-39.748,74.337-72.937,120.586-98.37
		c44.891-24.688,92.676-40.631,143.209-48.426c28.059-4.329,56.381-5.855,84.692-4.366c63.079,3.316,122.968,19.055,179.019,48.479
		c30.511,16.017,58.816,35.325,84.584,58.281c31.279,27.864,58.718,59.037,81.209,94.439c22.479,35.385,39.452,73.228,51.111,113.54
		c8.089,27.971,12.896,56.478,15.706,85.369c0.482,4.958,0.954,9.939,1.212,14.924c0.291,5.608,0.35,5.771,6.143,5.775
		c29.665,0.02,59.331,0.009,88.996,0.009c5.999,0,11.999,0.029,17.999-0.009c5.896-0.037,6.698-0.739,6.139-6.737
		c-1.128-12.092-1.66-24.23-3.018-36.304c-2.926-26.021-7.22-51.795-13.596-77.207c-14.265-56.857-36.832-110.184-67.896-159.91
		c-17.078-27.338-36.227-53.092-57.861-77.025c-32.563-36.026-68.776-67.747-109.433-94.391
		c-43.787-28.694-90.726-50.651-140.71-66.054c-29.676-9.146-60.026-15.417-90.82-19.354c-7.906-1.011-15.854-1.963-23.838-2.413
		c-2.823-0.16-5.643-0.526-8.226-1.853C591.727,1.991,591.666,1.521,592,1z"/>
	<path style="fill-rule:evenodd;clip-rule:evenodd;fill:#F34336;" d="M591.992,2.022c51.916,4.028,102.624,13.922,151.455,32.24
		C873.15,82.918,971.669,168.057,1039.372,288.76c33.781,60.228,54.645,124.924,64.3,193.234
		c2.729,19.301,4.341,38.733,5.179,58.224c0.148,3.442-0.293,4.938-4.392,4.92c-37.664-0.175-75.33-0.163-112.994-0.012
		c-3.812,0.016-4.567-1.144-4.749-4.752c-5.123-102.113-40.641-192.161-108.038-269.205
		c-51.359-58.711-114.078-100.758-188.18-125.473c-58.219-19.418-118.031-26.139-178.966-19.543
		c-120.3,13.021-218.167,67.716-294.057,161.604c-44.06,54.509-72.361,116.673-86.15,185.333
		c-9.052,45.074-10.988,90.545-5.681,136.271c12.602,108.584,59.306,200.012,139.491,273.976
		c62.749,57.88,136.671,94.029,221.113,107.159c107.138,16.66,207.56-2.912,299.016-61.542
		c92.429-59.254,154.159-142.305,185.071-247.922c5.953-20.34,10.334-41.016,12.796-62.061c0.573-4.898,2.304-6.381,7.368-6.347
		c36.829,0.248,73.662,0.209,110.492,0.033c4.419-0.021,5.653,0.93,5.145,5.512c-14.159,127.563-64.947,238.232-153.689,330.997
		c-70.86,74.073-156.209,124.254-255.148,151.208c-34.828,9.487-70.354,14.831-106.295,17.636c-1.926,0.97-3.986,0.253-5.973,0.474
		c-2.318,0-4.637,0.002-6.957,0c-1.764,0-3.525,0.002-5.291,0c-2.712,0-5.423,0.003-8.136,0c-8.074,0-16.146,0.002-24.217,0.001
		c-2.719-0.001-5.439,0.001-8.158-0.001c-2.33,0-4.662,0.002-6.991,0c-2.215,0-4.433,0.002-6.646,0.001
		c-22.026-0.53-43.761-3.604-65.389-7.591c-54.664-10.077-106.503-28.365-155.623-54.245
		c-38.178-20.116-73.608-44.394-106.005-72.924c-46.877-41.283-86.253-88.781-117.311-143.075
		c-18.338-32.06-33.679-65.495-45.366-100.52C17.42,705.605,9.116,670.3,4.525,634.129C2.958,621.775,2.567,609.337,1,597
		c0-2.333,0-4.667,0-7c1.043-2.116,0.27-4.375,0.516-6.557c0-2.654-0.002-5.306,0-7.961c0-10.333-0.002-20.662,0-30.99
		c0-2.727-0.001-5.455,0-8.182c0-2.324-0.001-4.65,0-6.974c0-1.929-0.001-3.86,0-5.789c0.77-26.864,4.754-53.315,10.104-79.612
		c4.257-20.924,9.897-41.476,16.56-61.728c10.486-31.873,24.035-62.445,40.028-91.946c16.483-30.403,35.736-58.941,57.535-85.766
		c18.406-22.65,38.774-43.428,60.324-63.094c26.428-24.117,55.175-45.092,85.801-63.486c40.611-24.392,83.713-43.111,129.223-56.374
		c27.251-7.941,54.958-13.57,83.044-17.35c11.688-1.573,23.467-2.559,35.292-2.677c1.931,0,3.858-0.002,5.788,0
		c2.324,0,4.645-0.002,6.968,0c2.722,0,5.441-0.003,8.163,0c9.657,0,19.312-0.002,28.964-0.001C572.531,1.227,575.82,2.137,579,1
		c0.666,0,1.334,0,2,0c2.006,1.087,4.17,0.251,6.244,0.516C588.823,1.723,590.498,1.033,591.992,2.022z"/>
	<path style="fill-rule:evenodd;clip-rule:evenodd;fill:#FEFEFE;" d="M518.997,1.99C454.826,6.64,392.97,20.995,334.158,47.267
		C219.766,98.364,132.115,178.903,70.914,288.166c-29.63,52.898-49.395,109.414-60.59,168.949
		c-4.097,21.787-6.466,43.811-8.309,65.891C1.674,523.453,1.335,523.451,1,523C1,350.5,1.014,178,0.906,5.5
		C0.904,1.751,1.75,0.904,5.5,0.906C176.667,1.015,347.833,1,519,1c0.329,0.222,0.438,0.441,0.328,0.661
		C519.218,1.881,519.107,1.99,518.997,1.99z"/>
	<path style="fill-rule:evenodd;clip-rule:evenodd;fill:#FEFEFE;" d="M1,597c2.176,0.893,1.23,2.885,1.347,4.339
		c3.458,42.984,11.124,85.164,24.034,126.347c27.056,86.309,72.17,161.919,135.664,226.257
		c73.722,74.701,161.725,124.698,263.75,149.768c30.32,7.45,61.143,11.692,92.222,14.248c0.319,0.237,0.423,0.47,0.312,0.7
		c-0.11,0.228-0.22,0.342-0.329,0.342c-170.833,0-341.667-0.014-512.5,0.094c-3.75,0.003-4.596-0.845-4.594-4.594
		C1.014,942,1,769.5,1,597z"/>
	<path style="fill-rule:evenodd;clip-rule:evenodd;fill:#F4584D;" d="M1.945,543.934c0,10.711,0,21.422,0,32.133
		C1.602,576.449,1.286,576.448,1,576c0-10.667,0-21.333,0-32C1.286,543.552,1.602,543.551,1.945,543.934z"/>
	<path style="fill-rule:evenodd;clip-rule:evenodd;fill:#F4574B;" d="M570.059,1.95c-10.039,0-20.078,0-30.117,0
		c-0.292-0.229-0.38-0.447-0.266-0.652C539.787,1.1,539.894,1,540,1c10,0,20,0,30,0c0.317,0.192,0.432,0.397,0.344,0.614
		C570.252,1.838,570.158,1.95,570.059,1.95z"/>
	<path style="fill-rule:evenodd;clip-rule:evenodd;fill:#F4574B;" d="M539.943,1118.048c8.362-0.003,16.723-0.007,25.085-0.011
		c0.312,0.223,0.411,0.44,0.299,0.651c-0.11,0.208-0.219,0.312-0.327,0.312c-8.333,0-16.667,0-25,0
		c-0.318-0.193-0.432-0.398-0.343-0.616C539.748,1118.16,539.844,1118.048,539.943,1118.048z"/>
	<path style="fill-rule:evenodd;clip-rule:evenodd;fill:#F67A71;" d="M570.059,1.95C570.021,1.635,570.002,1.317,570,1c3,0,6,0,9,0
		C576.22,3.202,573.021,1.479,570.059,1.95z"/>
	<path style="fill-rule:evenodd;clip-rule:evenodd;fill:#F5685D;" d="M565,1119c0.003-0.321,0.012-0.643,0.027-0.963
		c2.662-0.007,5.322-0.015,7.982-0.021c0.323,0.222,0.43,0.441,0.318,0.659c-0.109,0.217-0.219,0.325-0.328,0.325
		C570.334,1119,567.666,1119,565,1119z"/>
	<path style="fill-rule:evenodd;clip-rule:evenodd;fill:#F67970;" d="M539.943,1118.048c0.036,0.316,0.055,0.634,0.057,0.952
		c-2.667,0-5.333,0-8,0c-0.322-0.198-0.434-0.404-0.338-0.619c0.097-0.219,0.197-0.328,0.301-0.328
		C534.624,1118.052,537.283,1118.05,539.943,1118.048z"/>
	<path style="fill-rule:evenodd;clip-rule:evenodd;fill:#F78178;" d="M1,576c0.317,0.004,0.632,0.025,0.946,0.065
		c0.008,2.65,0.016,5.301,0.024,7.951C1.64,584.445,1.316,584.463,1,584C1,581.333,1,578.667,1,576z"/>
	<path style="fill-rule:evenodd;clip-rule:evenodd;fill:#F78178;" d="M1.945,543.934C1.631,543.973,1.316,543.995,1,544
		c0-2.667,0-5.333,0-8c0.309-0.459,0.63-0.445,0.96-0.023C1.956,538.629,1.951,541.281,1.945,543.934z"/>
	<path style="fill-rule:evenodd;clip-rule:evenodd;fill:#F67A71;" d="M540,1c-0.001,0.318-0.021,0.635-0.058,0.95
		c-2.662-0.005-5.323-0.009-7.984-0.013c-0.301-0.223-0.395-0.436-0.283-0.639C531.785,1.1,531.893,1,532,1
		C534.667,1,537.333,1,540,1z"/>
	<path style="fill-rule:evenodd;clip-rule:evenodd;fill:#F9A39D;" d="M1.96,535.977C1.641,535.99,1.32,535.998,1,536
		c0-2.333,0-4.667,0-7c0.332-0.442,0.664-0.465,0.997-0.002C1.984,531.324,1.973,533.65,1.96,535.977z"/>
	<path style="fill-rule:evenodd;clip-rule:evenodd;fill:#FBCFCC;" d="M518,1119c0.006-0.348,0.012-0.694,0.018-1.042
		c2.321,0.025,4.642,0.052,6.963,0.077c0.339,0.208,0.455,0.42,0.348,0.637c-0.108,0.219-0.217,0.328-0.329,0.328
		C522.667,1119,520.333,1119,518,1119z"/>
	<path style="fill-rule:evenodd;clip-rule:evenodd;fill:#F9A09A;" d="M525,1119c-0.008-0.321-0.015-0.644-0.019-0.965
		c2.328,0.006,4.655,0.012,6.982,0.018c0.021,0.315,0.034,0.631,0.037,0.947C529.667,1119,527.333,1119,525,1119z"/>
	<path style="fill-rule:evenodd;clip-rule:evenodd;fill:#F9A09A;" d="M532,1c-0.006,0.313-0.02,0.626-0.042,0.938
		c-2.326,0.009-4.652,0.019-6.978,0.027c-0.317-0.221-0.419-0.438-0.308-0.649C524.782,1.105,524.891,1,525,1
		C527.333,1,529.667,1,532,1z"/>
	<path style="fill-rule:evenodd;clip-rule:evenodd;fill:#F9A09A;" d="M578.016,1118.027c2.335,0.003,4.67,0.006,7.005,0.009
		c0.315,0.221,0.419,0.438,0.308,0.649c-0.11,0.209-0.219,0.314-0.328,0.314c-2.334,0-4.666,0-7,0
		c-0.33-0.222-0.438-0.439-0.324-0.654C577.789,1118.134,577.902,1118.027,578.016,1118.027z"/>
	<path style="fill-rule:evenodd;clip-rule:evenodd;fill:#FBCECB;" d="M1.997,528.998l-0.498,0.008L1,529c0-2,0-4,0-6
		c0.338,0.002,0.677,0.004,1.015,0.006C2.009,525.004,2.003,527.001,1.997,528.998z"/>
	<path style="fill-rule:evenodd;clip-rule:evenodd;fill:#F8A19A;" d="M1,584c0.324-0.003,0.647,0.002,0.971,0.017
		C1.693,586.019,3.162,588.304,1,590C1,588,1,586,1,584z"/>
	<path style="fill-rule:evenodd;clip-rule:evenodd;fill:#FAB3AE;" d="M587.006,1.986C584.951,1.979,582.742,2.906,581,1c2,0,4,0,6,0
		c0.328,0.217,0.438,0.436,0.33,0.655C587.223,1.876,587.115,1.986,587.006,1.986z"/>
	<path style="fill-rule:evenodd;clip-rule:evenodd;fill:#FBD0CD;" d="M525,1c-0.009,0.321-0.015,0.644-0.02,0.965
		c-1.995,0.009-3.989,0.017-5.984,0.025C518.986,1.66,518.988,1.33,519,1C521,1,523,1,525,1z"/>
	<path style="fill-rule:evenodd;clip-rule:evenodd;fill:#FBCFCC;" d="M585,1119c0.01-0.321,0.016-0.643,0.021-0.964
		c1.995-0.009,3.989-0.017,5.983-0.025c0.012,0.33,0.01,0.659-0.004,0.989C589,1119,587,1119,585,1119z"/>
	<path style="fill-rule:evenodd;clip-rule:evenodd;fill:#FCD7D4;" d="M587.006,1.986C587.005,1.657,587.003,1.329,587,1
		c1.666,0,3.334,0,5,0c-0.002,0.341-0.005,0.682-0.008,1.022C590.33,2.01,588.668,1.998,587.006,1.986z"/>
	<path style="fill-rule:evenodd;clip-rule:evenodd;fill:#F77F77;" d="M578.016,1118.027c-0.01,0.324-0.016,0.648-0.016,0.973
		c-1.666,0-3.334,0-5,0c-0.002-0.329,0-0.657,0.01-0.985C574.679,1118.02,576.348,1118.023,578.016,1118.027z"/>
	<path style="fill-rule:evenodd;clip-rule:evenodd;" d="M709.026,545.037c-47.331,0-94.662-0.001-141.993,0.004
		c-2.166,0.001-4.339,0.182-6.496,0.058c-2.41-0.139-3.022,0.745-3.009,3.178c0.115,20.499,0.118,40.998-0.008,61.496
		c-0.014,2.312,0.707,2.951,2.758,2.908c1.998-0.041,3.999,0.055,5.999,0.055c94.328,0.004,188.657,0.003,282.985,0.003
		c6.27,0,6.27,0.001,5.104,5.907c-22.29,112.934-110.322,205.915-221.603,234.06c-157.561,39.85-318.51-52.094-364.336-208.131
		c-41.262-140.496,20.062-288.54,148.517-357.63c51.484-27.691,106.648-38.733,164.958-34.346
		c127.552,9.597,237.229,101.337,269.539,229.042c4.793,18.945,7.45,38.226,8.842,57.715c0.313,4.4-0.435,5.824-5.265,5.804
		C806.355,544.958,757.69,545.037,709.026,545.037z"/>
</g>
</svg>
